<svg xmlns="http://www.w3.org/2000/svg">
  <defs>
    <symbol id="icon-arrow" width="14" height="14" viewBox="0 0 14 14" fill="none" xmlns="http://www.w3.org/2000/svg">
      <path d="M7.00022 4.08333C7.12712 4.08318 7.25259 4.11009 7.36826 4.16227C7.48393 4.21445 7.58714 4.2907 7.671 4.38594L11.4772 8.71164C11.542 8.78186 11.592 8.86431 11.6244 8.95415C11.6568 9.04399 11.6709 9.1394 11.6659 9.23477C11.6609 9.33014 11.6369 9.42355 11.5953 9.50951C11.5537 9.59547 11.4953 9.67224 11.4236 9.73531C11.3519 9.79839 11.2683 9.84649 11.1777 9.87679C11.0871 9.90709 10.9914 9.91899 10.8962 9.91177C10.801 9.90456 10.7081 9.87838 10.6232 9.83477C10.5382 9.79117 10.4628 9.73102 10.4014 9.65786L7.07316 5.8753C7.06406 5.86491 7.05284 5.85659 7.04026 5.85089C7.02768 5.84519 7.01403 5.84224 7.00022 5.84224C6.98641 5.84224 6.97276 5.84519 6.96019 5.85089C6.94761 5.85659 6.93639 5.86491 6.92729 5.8753L3.59902 9.65864C3.53763 9.73179 3.46224 9.79194 3.37727 9.83555C3.29231 9.87915 3.19948 9.90533 3.10425 9.91255C3.00902 9.91976 2.91331 9.90787 2.82274 9.87757C2.73218 9.84726 2.64858 9.79916 2.57687 9.73609C2.50516 9.67301 2.44678 9.59624 2.40517 9.51028C2.36355 9.42433 2.33954 9.33092 2.33454 9.23554C2.32954 9.14017 2.34366 9.04477 2.37606 8.95493C2.40846 8.86509 2.4585 8.78264 2.52322 8.71241L6.32829 4.38749C6.41229 4.29202 6.51566 4.21552 6.63151 4.16308C6.74737 4.11064 6.87305 4.08345 7.00022 4.08333Z" fill="#6F7B8D"/>
    </symbol>
    <symbol id="icon-x" viewBox="0 0 24 24">
      <path
        fill-rule="evenodd"
        clip-rule="evenodd"
        d="M18.7071 5.29289C19.0976 5.68342 19.0976 6.31658 18.7071 6.70711L6.70711 18.7071C6.31658 19.0976 5.68342 19.0976 5.29289 18.7071C4.90237 18.3166 4.90237 17.6834 5.29289 17.2929L17.2929 5.29289C17.6834 4.90237 18.3166 4.90237 18.7071 5.29289Z"
        fill="9"
      />
      <path
        fill-rule="evenodd"
        clip-rule="evenodd"
        d="M5.29289 5.29289C5.68342 4.90237 6.31658 4.90237 6.70711 5.29289L18.7071 17.2929C19.0976 17.6834 19.0976 18.3166 18.7071 18.7071C18.3166 19.0976 17.6834 19.0976 17.2929 18.7071L5.29289 6.70711C4.90237 6.31658 4.90237 5.68342 5.29289 5.29289Z"
        fill=""
      />
    </symbol>
    <symbol id="icon-big-x" width="14" height="14" viewBox="0 0 14 14" xmlns="http://www.w3.org/2000/svg">
      <path d="M0.577268 12.2432C0.421024 12.3995 0.333276 12.6114 0.333328 12.8324C0.33338 13.0535 0.421228 13.2654 0.577546 13.4216C0.733863 13.5779 0.945846 13.6656 1.16686 13.6655C1.38787 13.6655 1.59982 13.5777 1.75606 13.4213L6.90119 8.27698C6.91409 8.26405 6.92942 8.25378 6.94629 8.24678C6.96317 8.23978 6.98125 8.23618 6.99952 8.23618C7.01779 8.23618 7.03587 8.23978 7.05275 8.24678C7.06962 8.25378 7.08494 8.26405 7.09785 8.27698L12.243 13.4225C12.3203 13.4999 12.4122 13.5613 12.5133 13.6032C12.6144 13.6451 12.7227 13.6666 12.8322 13.6667C12.9416 13.6667 13.05 13.6452 13.1511 13.6033C13.2522 13.5615 13.3441 13.5001 13.4215 13.4227C13.4989 13.3454 13.5603 13.2535 13.6022 13.1524C13.6441 13.0513 13.6657 12.943 13.6657 12.8336C13.6657 12.7241 13.6442 12.6158 13.6024 12.5147C13.5605 12.4135 13.4991 12.3217 13.4218 12.2443L8.27719 7.09768C8.26426 7.08478 8.254 7.06945 8.247 7.05258C8.24 7.03571 8.23639 7.01762 8.23639 6.99936C8.23639 6.98109 8.24 6.963 8.247 6.94613C8.254 6.92926 8.26426 6.91394 8.27719 6.90104L13.4229 1.75612C13.5791 1.59966 13.6668 1.38754 13.6667 1.16643C13.6665 0.945324 13.5785 0.733333 13.4221 0.577095C13.2656 0.420858 13.0535 0.333172 12.8323 0.333328C12.6112 0.333485 12.3992 0.42147 12.243 0.577928L7.09785 5.72174C7.08494 5.73467 7.06962 5.74493 7.05275 5.75193C7.03587 5.75893 7.01779 5.76254 6.99952 5.76254C6.98125 5.76254 6.96317 5.75893 6.94629 5.75193C6.92942 5.74493 6.91409 5.73467 6.90119 5.72174L1.75606 0.577928C1.6787 0.500531 1.58684 0.439129 1.48575 0.397228C1.38465 0.355327 1.2763 0.333747 1.16686 0.333721C0.945846 0.333669 0.733863 0.421413 0.577546 0.577651C0.421228 0.733888 0.33338 0.945821 0.333328 1.16683C0.333276 1.38783 0.421024 1.59981 0.577268 1.75612L5.72185 6.90104C5.73478 6.91394 5.74504 6.92926 5.75204 6.94613C5.75904 6.963 5.76265 6.98109 5.76265 6.99936C5.76265 7.01762 5.75904 7.03571 5.75204 7.05258C5.74504 7.06945 5.73478 7.08478 5.72185 7.09768L0.577268 12.2432Z"/>
    </symbol>
  </defs>
</svg>
